inDegrees=no
num_controls=7
num_derivatives=13
num_iterations=147
num_multipliers=7
num_parameters=0
num_slacks=7
num_states=26
objective=0.448317
objective_accelerations=0.048940
objective_balance=0.007439
objective_effort=0.036411
objective_height=0.350587
objective_ligament=0.004940
solver_duration=2106.358179
status=Solve_Succeeded
success=true
DataType=double
version=3
OpenSimVersion=4.5
endheader
time	/jointset/ground_pelvis/pelvis_tilt/value	/jointset/ground_pelvis/pelvis_tx/value	/jointset/ground_pelvis/pelvis_ty/value	/jointset/hip_l/hip_flexion_l/value	/jointset/hip_l/hip_adduction_l/value	/jointset/hip_l/hip_rotation_l/value	/jointset/back/lumbar_extension/value	/jointset/patellofemoral_l/patellar_flexion_l/value	/jointset/knee_l/knee_flexion_l/value	/jointset/knee_l/knee_adduction_l/value	/jointset/knee_l/knee_rotation_l/value	/jointset/ankle_l/ankle_angle_l/value	/jointset/subtalar_l/subtalar_angle_l/value	/jointset/ground_pelvis/pelvis_tilt/speed	/jointset/ground_pelvis/pelvis_tx/speed	/jointset/ground_pelvis/pelvis_ty/speed	/jointset/hip_l/hip_flexion_l/speed	/jointset/hip_l/hip_adduction_l/speed	/jointset/hip_l/hip_rotation_l/speed	/jointset/back/lumbar_extension/speed	/jointset/patellofemoral_l/patellar_flexion_l/speed	/jointset/knee_l/knee_flexion_l/speed	/jointset/knee_l/knee_adduction_l/speed	/jointset/knee_l/knee_rotation_l/speed	/jointset/ankle_l/ankle_angle_l/speed	/jointset/subtalar_l/subtalar_angle_l/speed	/forceset/tau_hip_flexion_l	/forceset/tau_hip_adduction_l	/forceset/tau_hip_rotation_l	/forceset/tau_knee_flexion_l	/forceset/tau_ankle_angle_l	/forceset/tau_subtalar_angle_l	/forceset/tau_lumbar_extension	lambda_cid13_p0	lambda_cid13_p1	lambda_cid13_p2	lambda_cid13_p3	lambda_cid13_p4	lambda_cid13_p5	lambda_cid14_p0	/jointset/ground_pelvis/pelvis_tilt/accel	/jointset/ground_pelvis/pelvis_tx/accel	/jointset/ground_pelvis/pelvis_ty/accel	/jointset/hip_l/hip_flexion_l/accel	/jointset/hip_l/hip_adduction_l/accel	/jointset/hip_l/hip_rotation_l/accel	/jointset/back/lumbar_extension/accel	/jointset/patellofemoral_l/patellar_flexion_l/accel	/jointset/knee_l/knee_flexion_l/accel	/jointset/knee_l/knee_adduction_l/accel	/jointset/knee_l/knee_rotation_l/accel	/jointset/ankle_l/ankle_angle_l/accel	/jointset/subtalar_l/subtalar_angle_l/accel	gamma_cid13_p0	gamma_cid13_p1	gamma_cid13_p2	gamma_cid13_p3	gamma_cid13_p4	gamma_cid13_p5	gamma_cid14_p0
0	-0.1600015536181486	0.05851293545218424	0.8979931723030572	0.3774924667018715	-0.2592179892193814	-0.2715946859781415	-0.01265067647494873	0.03223648243721444	0.03223648243721463	-0.1745329251994329	0.1732146787541577	-0.04231377076293093	-0.009358381562749247	0	0	0	0	0	0	0	0	0	0	0	0	0	0.1497541880066562	-0.07905478232236812	-0.05119233286724882	-0.3039232055550233	0.306284037362474	-0.04455766723797497	-0.09398109461964609	56.07808785050744	3.287411643030925	6.206902599037655	-4.048181000217078	-589.9522371419407	-71.40209420932442	-39.03277442391393	-4.24697715680204	-2.139280944722412	-1.099882223641882	12.34701339889073	-1.242075217734698	2.974074237620417	-5.747374275389571	8.921293194932497	8.921293194932481	0.05362405026350239	0.1149731341561451	0.8933733604629426	-1.0632960936666	-3.037306904173385e-08	6.10576014122618e-08	8.290412199952984e-08	5.173343469256635e-09	3.21577704876621e-08	-2.131941237449232e-08	-1.307477804375441e-08
0.01	-0.160206683747761	0.05840676548087988	0.8979393597365266	0.3780953067092052	-0.2592797958942162	-0.2714463185190677	-0.01293940803274211	0.03267245666091868	0.03267245666091955	-0.1745321332450914	0.1732174202150863	-0.04227219579503438	-0.009411956383957268	-0.04079414772244242	-0.0211910590277561	-0.01072674275692041	0.1200582210453936	-0.01228957894750921	0.02955768344485888	-0.05738989471472189	0.08681751827328613	0.08681751827328607	0.0001815304851755559	0.000529919710141606	0.00822107831853788	-0.0106655472147826	0.1419786079927197	-0.08773437655036959	-0.04941369240198092	-0.2931353041532208	0.2887943693807267	-0.02932613288812249	-0.08802416853409696	51.01338425016871	-2.190198919066989	6.793877002273171	-1.171518778162395	-590.7886231859876	-81.63795642282926	-39.04532840961841	-3.960858412362208	-2.10257706214883	-1.053698287781925	11.75875333056623	-1.211654848362991	2.929233325105919	-5.68133454293667	8.505384788332471	8.505384788332506	0.003733067156291159	0.01923583180376936	0.7723857122617006	-1.060790386513155	-5.060405326396591e-08	9.443016658853496e-08	1.112187516118414e-07	1.945533757336661e-08	-6.70547049268333e-08	5.017462595600186e-09	-1.831828071800904e-08
0.02	-0.1608128003210771	0.05808997318322867	0.8977793541452137	0.3798834343016335	-0.2594623494815469	-0.271005850640108	-0.01379134603236727	0.03396528679631783	0.03396528679631788	-0.1745288570358925	0.1732249077615872	-0.04215122791500995	-0.009570707947538932	-0.08019728874076079	-0.04212446526937251	-0.02123860495643499	0.2370575170188897	-0.02414938249917681	0.05842008397720982	-0.112641288366372	0.1713711823388043	0.1713711823388056	0.0004956817508197231	0.0009492171147072513	0.01587858242557544	-0.02103534847472768	0.1342030279787844	-0.09641397077837068	-0.04763505193671933	-0.2823474027514167	0.2713047013989796	-0.01409459853826946	-0.08206724244854688	46.024669881134	-7.680870099899602	7.382657877319899	1.592447410542143	-590.4492299422072	-91.7718892965928	-39.08244245173722	-3.968775815977238	-2.087750387494465	-1.056906112160717	11.73522838451121	-1.156120138566378	2.83501765511883	-5.319674062775209	8.468522353378903	8.468522353379171	0.08014820635722474	0.09284867304095212	0.7806585181628856	-1.004146902699092	-7.083503748619797e-08	1.278027317648081e-07	1.39533381224153e-07	3.373733167747658e-08	-1.662671803413287e-07	3.13543375656927e-08	-2.356178339226368e-08
0.03	-0.1618066076032336	0.05756602603524295	0.8975151382695764	0.3828259928059098	-0.2597611210764301	-0.2702804368240906	-0.01518427097804682	0.03609250862928477	0.03609250862928433	-0.1745216114538237	0.1732363044852011	-0.04195529825344414	-0.00983118703871602	-0.1183585151554227	-0.06253078926220627	-0.03157969877955706	0.3508620207130755	-0.03552040183663816	0.08652431101836378	-0.1655397835363095	0.2536927449905787	0.2536927449905837	0.0009689654244856506	0.00133510395254412	0.02332721986733432	-0.03097330983756382	0.1285303659761657	-0.09055777603238184	-0.04690492542784971	-0.2777788697256995	0.267845186794724	-0.0169124423667802	-0.07727841363940817	44.84065814296831	-6.369066444141977	7.309785982526121	1.419837801972914	-590.4772183860507	-88.23590140392506	-39.14291953373534	-3.70895656290606	-1.996940340152879	-1.019013962963844	11.11422509592172	-1.114934036753831	2.777350756383483	-5.214349659132459	8.056912065023969	8.056912065024195	0.03328013119572813	0.01218754678629431	0.729942843851528	-0.9755822138028921	-8.970145117105413e-08	1.367837323116341e-07	1.610257580654697e-07	5.186160479837383e-08	-2.718175149075792e-07	3.39756340424091e-08	-2.746368496137038e-08
0.04	-0.1631758592512758	0.05684204226033389	0.8971482508665928	0.386888829093938	-0.2601710711057715	-0.269278135632108	-0.01709406335843173	0.03903153385755836	0.03903153385755841	-0.1745091606983548	0.1732517058487206	-0.04168428692012691	-0.01018843803566688	-0.155286161917901	-0.08213179065403685	-0.04177291042571953	0.4611130737692399	-0.04638506939081243	0.1137975591703099	-0.2160147753074253	0.3337318614002432	0.3337318614002441	0.001536716431129984	0.001750145095630432	0.03089491677585878	-0.04038972962948047	0.122857703973548	-0.08470158128639181	-0.04617479891897445	-0.2732103366999822	0.2643856721904691	-0.01973028619528973	-0.07248958483026964	43.72631852605757	-5.067693310034298	7.236559446416218	1.139194519947658	-589.444961883208	-84.60152063612786	-39.2253554197957	-3.722059885540517	-1.926685867293819	-1.027329676768798	11.02453825690693	-1.054849781908962	2.668821877277261	-4.834973383010835	8.012033104956918	8.012033104955607	0.09904167295290513	0.09867953409084021	0.8044704115160082	-0.8998385885151918	-1.085397293809128e-07	1.452618140001211e-07	1.823774699011989e-07	7.006510016703989e-08	-3.774985269821134e-07	3.610794951926207e-08	-3.133792465202043e-08
0.05	-0.1649086057511455	0.05592570061288171	0.8966798981956637	0.3920376479667956	-0.2606871108147726	-0.2680071558697962	-0.01949647248032894	0.04276002764669583	0.0427600276466959	-0.1744906177233078	0.1732714448557699	-0.04133734604776526	-0.01063731905432121	-0.1910513262713052	-0.1010364646624591	-0.05189262221345149	0.5681007942708992	-0.05674222173253098	0.1402737727448299	-0.2641059783517419	0.4115870013626398	0.4115870013626312	0.002160434488172281	0.002187901528170028	0.03846248065561388	-0.04931661259688489	0.1158224927001478	-0.08239392543789952	-0.0450487333792786	-0.2667208476084057	0.2565240836904631	-0.01761345718898272	-0.06690309843611428	41.37870645852647	-5.597456605349811	7.345546100186133	1.926010176843195	-588.3663662710828	-84.50724569432207	-39.32799258096605	-3.47198029036511	-1.857332881388432	-1.003618051469991	10.45338795782661	-1.014071682221489	2.618301877686562	-4.742033157114923	7.615276481081801	7.615276481081273	0.04235801012156359	0.01483588178188252	0.7282761110148791	-0.8786763673869129	-1.217179633112385e-07	1.590037582598039e-07	2.005820158728389e-07	8.209227573153778e-08	-4.412347314133524e-07	4.321535165301945e-08	-3.422558005644737e-08
0.06	-0.1669926510105741	0.05482331728259093	0.8961104831825183	0.3982398438468757	-0.2613043067915745	-0.2664751578157097	-0.022368961511064	0.04725567724329723	0.04725567724329717	-0.1744661733400821	0.1732952638639341	-0.04091565418964414	-0.01117338154595635	-0.2255459138296997	-0.119340127221757	-0.06198537886897012	0.6717884752138062	-0.06661632295097705	0.1660012175252376	-0.3100307570749735	0.4871630228930676	0.4871630228930584	0.002716998066881662	0.002566145318564061	0.04584511392775374	-0.05782602422564304	0.1087872814267441	-0.08008626958940668	-0.04392266783958251	-0.2602313585168307	0.2486624951904568	-0.01549662818267525	-0.0613166120419617	39.09209324580195	-6.135413479947345	7.453000312571127	2.613837208904136	-586.3509660337983	-84.3231766974536	-39.44899083353832	-3.467944526538599	-1.806483577468966	-1.021938650326133	10.36453034515649	-0.9582395572544663	2.519068118454808	-4.401688518793825	7.556209418563204	7.556209418563609	0.0856107772863213	0.08677700566172709	0.7674842899929661	-0.8163443207859364	-1.346578795876891e-07	1.729673388382738e-07	2.186540495975699e-07	9.385939572533383e-08	-5.032048386806631e-07	5.053223111969912e-08	-3.707169506987545e-08
0.07000000000000001	-0.1694158314420418	0.05354103743709515	0.8954400987324869	0.4054632179390611	-0.2620176510712697	-0.2646897249039303	-0.02568937460300155	0.05249622933181374	0.05249622933181296	-0.1744362234941867	0.1733228296473236	-0.04042067686827661	-0.01179219747535491	-0.2588830370834365	-0.1369985282555719	-0.07209619110568231	0.7723257673427771	-0.07595932523010913	0.1909550117833167	-0.3536909741617452	0.5605661472662777	0.56056614726628	0.003268865799714662	0.002941885088479015	0.05313956052339805	-0.06585129553488181	0.1017903925728139	-0.07702540693504507	-0.04293955063084348	-0.2550309624974373	0.2429840715009444	-0.01456868794817557	-0.05570567613698577	37.44499378139702	-6.280806469103329	7.511341720460591	2.790862152183434	-584.6650896692319	-83.34850895995164	-39.58618434735895	-3.235533567422891	-1.727902408536718	-1.006455897718179	9.814224412051095	-0.9083728827502162	2.463950693667301	-4.294055231016294	7.17518426395674	7.175184263958221	0.03940324204720961	0.01217349756960499	0.708798140111595	-0.7827892848906252	-1.423261029648895e-07	1.773776737542003e-07	2.289526469002763e-07	1.026652833829522e-07	-5.420042857249497e-07	5.246753859693566e-08	-3.848166543344921e-08
